<?xml version="1.0" encoding="UTF-8"?>
<svg xmlns="http://www.w3.org/2000/svg" xmlns:xlink="http://www.w3.org/1999/xlink"
     width="800" height="450" viewBox="0 0 800 450">
<defs>
</defs>
<rect x="0" y="0" width="800" height="450" fill="white" />
<text x="400" y="25" font-size="18" text-anchor="middle" font-weight="bold" fill="#333">machine.json Execution Modes</text>
<rect x="30.0" y="50" width="220" height="360" rx="10" ry="10" fill="#E3F2FD" stroke="#1565C0" stroke-width="2" />
<text x="140" y="75" font-size="16" text-anchor="middle" font-weight="bold" fill="#1565C0">Local Shell</text>
<text x="140" y="92" font-size="9" text-anchor="middle" fill="#888">Single workstation / GPU node</text>
<path d="M45.0,105 L235.0,105" stroke="#1565C0" stroke-width="0.5" opacity="0.4" />
<text x="45.0" y="125" font-size="10" fill="#555" font-weight="bold">context_type:</text>
<text x="45.0" y="139" font-size="10" fill="#1565C0" font-family="monospace">local</text>
<text x="45.0" y="160" font-size="10" fill="#555" font-weight="bold">batch_type:</text>
<text x="45.0" y="174" font-size="10" fill="#1565C0" font-family="monospace">shell</text>
<text x="45.0" y="195" font-size="10" fill="#555" font-weight="bold">GPU:</text>
<text x="45.0" y="209" font-size="10" fill="#1565C0" font-family="monospace">direct access</text>
<text x="45.0" y="230" font-size="10" fill="#555" font-weight="bold">Use case:</text>
<text x="45.0" y="244" font-size="10" fill="#1565C0" font-family="monospace">Testing, small runs</text>
<path d="M45.0,265 L235.0,265" stroke="#1565C0" stroke-width="0.5" opacity="0.4" />
<text x="45.0" y="280" font-size="10" fill="#2E7D32" font-weight="bold">✓ Pros</text>
<text x="50.0" y="296" font-size="9" fill="#555">• Simple setup</text>
<text x="50.0" y="310" font-size="9" fill="#555">• No queue wait</text>
<text x="45.0" y="332" font-size="10" fill="#C62828" font-weight="bold">✗ Cons</text>
<text x="50.0" y="348" font-size="9" fill="#555">• Single machine only</text>
<text x="50.0" y="362" font-size="9" fill="#555">• No job scheduling</text>
<rect x="290.0" y="50" width="220" height="360" rx="10" ry="10" fill="#FFF3E0" stroke="#E65100" stroke-width="2" />
<text x="400" y="75" font-size="16" text-anchor="middle" font-weight="bold" fill="#E65100">Full HPC</text>
<text x="400" y="92" font-size="9" text-anchor="middle" fill="#888">All stages on PBS/Slurm</text>
<path d="M305.0,105 L495.0,105" stroke="#E65100" stroke-width="0.5" opacity="0.4" />
<text x="305.0" y="125" font-size="10" fill="#555" font-weight="bold">context_type:</text>
<text x="305.0" y="139" font-size="10" fill="#E65100" font-family="monospace">ssh / local</text>
<text x="305.0" y="160" font-size="10" fill="#555" font-weight="bold">batch_type:</text>
<text x="305.0" y="174" font-size="10" fill="#E65100" font-family="monospace">pbs / slurm</text>
<text x="305.0" y="195" font-size="10" fill="#555" font-weight="bold">GPU:</text>
<text x="305.0" y="209" font-size="10" fill="#E65100" font-family="monospace">via job script</text>
<text x="305.0" y="230" font-size="10" fill="#555" font-weight="bold">Use case:</text>
<text x="305.0" y="244" font-size="10" fill="#E65100" font-family="monospace">Production runs</text>
<path d="M305.0,265 L495.0,265" stroke="#E65100" stroke-width="0.5" opacity="0.4" />
<text x="305.0" y="280" font-size="10" fill="#2E7D32" font-weight="bold">✓ Pros</text>
<text x="310.0" y="296" font-size="9" fill="#555">• Scalable</text>
<text x="310.0" y="310" font-size="9" fill="#555">• Proper resource mgmt</text>
<text x="305.0" y="332" font-size="10" fill="#C62828" font-weight="bold">✗ Cons</text>
<text x="310.0" y="348" font-size="9" fill="#555">• Queue wait times</text>
<text x="310.0" y="362" font-size="9" fill="#555">• Complex config</text>
<rect x="550.0" y="50" width="220" height="360" rx="10" ry="10" fill="#E8F5E9" stroke="#2E7D32" stroke-width="2" />
<text x="660" y="75" font-size="16" text-anchor="middle" font-weight="bold" fill="#2E7D32">Mixed-Mode</text>
<text x="660" y="92" font-size="9" text-anchor="middle" fill="#888">Shell for GPU, HPC for DFT</text>
<path d="M565.0,105 L755.0,105" stroke="#2E7D32" stroke-width="0.5" opacity="0.4" />
<text x="565.0" y="125" font-size="10" fill="#555" font-weight="bold">train:</text>
<text x="565.0" y="139" font-size="10" fill="#2E7D32" font-family="monospace">shell (GPU node)</text>
<text x="565.0" y="160" font-size="10" fill="#555" font-weight="bold">model_devi:</text>
<text x="565.0" y="174" font-size="10" fill="#2E7D32" font-family="monospace">shell (GPU node)</text>
<text x="565.0" y="195" font-size="10" fill="#555" font-weight="bold">fp:</text>
<text x="565.0" y="209" font-size="10" fill="#2E7D32" font-family="monospace">pbs (CPU cluster)</text>
<text x="565.0" y="230" font-size="10" fill="#555" font-weight="bold">Use case:</text>
<text x="565.0" y="244" font-size="10" fill="#2E7D32" font-family="monospace">Best of both worlds</text>
<path d="M565.0,265 L755.0,265" stroke="#2E7D32" stroke-width="0.5" opacity="0.4" />
<text x="565.0" y="280" font-size="10" fill="#2E7D32" font-weight="bold">✓ Pros</text>
<text x="570.0" y="296" font-size="9" fill="#555">• No queue for GPU tasks</text>
<text x="570.0" y="310" font-size="9" fill="#555">• HPC for heavy DFT</text>
<text x="565.0" y="332" font-size="10" fill="#C62828" font-weight="bold">✗ Cons</text>
<text x="570.0" y="348" font-size="9" fill="#555">• More complex config</text>
<text x="570.0" y="362" font-size="9" fill="#555">• Need SSH between</text>
<text x="400" y="430" font-size="11" text-anchor="middle" fill="#2E7D32" font-weight="bold">★ Recommended for research workflows</text>
</svg>